<?xml version="1.0" encoding="UTF-8" standalone="no"?>
<!-- Created with Inkscape (http://www.inkscape.org/) -->

<svg
   width="2.6625237in"
   height="0.60981447in"
   viewBox="0 0 67.628105 15.489287"
   version="1.1"
   id="svg1"
   inkscape:version="1.3.2 (091e20e, 2023-11-25)"
   sodipodi:docname="drawing.svg"
   xmlns:inkscape="http://www.inkscape.org/namespaces/inkscape"
   xmlns:sodipodi="http://sodipodi.sourceforge.net/DTD/sodipodi-0.dtd"
   xmlns="http://www.w3.org/2000/svg"
   xmlns:svg="http://www.w3.org/2000/svg">
  <sodipodi:namedview
     id="namedview1"
     pagecolor="#ffffff"
     bordercolor="#000000"
     borderopacity="0.25"
     inkscape:showpageshadow="2"
     inkscape:pageopacity="0.0"
     inkscape:pagecheckerboard="0"
     inkscape:deskcolor="#d1d1d1"
     inkscape:document-units="mm"
     inkscape:zoom="1.0066639"
     inkscape:cx="125.16591"
     inkscape:cy="134.10633"
     inkscape:window-width="2560"
     inkscape:window-height="1330"
     inkscape:window-x="0"
     inkscape:window-y="27"
     inkscape:window-maximized="1"
     inkscape:current-layer="layer1" />
  <defs
     id="defs1" />
  <g
     inkscape:label="Layer 1"
     inkscape:groupmode="layer"
     id="layer1"
     transform="translate(-71.820519,-49.843731)">
    <text
       xml:space="preserve"
       style="font-style:normal;font-variant:normal;font-weight:normal;font-stretch:normal;font-size:32.2167px;font-family:AnjaliOldLipi;-inkscape-font-specification:AnjaliOldLipi;fill:#000000;fill-opacity:1;stroke-width:2.68472"
       x="100.37361"
       y="91.261482"
       id="text1"
       transform="scale(0.79026452,1.2653991)"><tspan
         sodipodi:role="line"
         id="tspan1"
         style="font-style:normal;font-variant:normal;font-weight:normal;font-stretch:normal;font-family:AnjaliOldLipi;-inkscape-font-specification:AnjaliOldLipi;fill:#000000;fill-opacity:1;stroke-width:2.68472"
         x="100.37361"
         y="91.261482" /></text>
    <path
       d="m 75.871033,53.502349 -0.254742,-2.890122 c 4.394178,1.858383 1.837634,5.044324 1.746389,5.914752 h 3.809654 v -4.038191 l 4.198425,-2.645057 -4.87618,15.489288 -1.424935,-3.534256 0.719142,-3.582102 -2.426106,-0.947577 -1.147068,5.917189 -4.395093,-0.667364 z m 10.468545,1.549734 -0.983893,4.596103 h 1.266428 c 1.069193,0 1.851193,-0.203715 2.345996,-0.611145 0.498267,-0.407431 0.747399,-1.050589 0.747399,-1.929474 0,-0.873065 -0.249132,-1.511857 -0.747399,-1.916377 -0.494803,-0.407431 -1.276803,-0.611146 -2.345996,-0.611146 z M 84.307253,53.8554 86.519035,50.259322 c 0.689982,-1.121824 4.502419,1.891675 5.204838,2.418424 0.702412,0.523839 1.588787,3.798294 1.588787,4.915817 0,1.123344 -6.727349,8.208986 -1.396084,2.601839 1.001519,-1.053346 -10.201827,5.721891 -9.258926,3.705354 l 0.701192,-3.332962 z m 10.967027,1.628266 h 0.955013 l 1.193757,3.815294 1.188572,-3.815294 h 1.126287 l 1.193761,3.815294 1.18857,-3.815294 h 0.95501 l -1.52075,4.889164 h -1.12629 l -1.250848,-4.007368 -1.256045,4.007368 h -1.126288 z m 14.22133,2.243777 v 0.392879 h -4.39097 c 0.0415,0.552941 0.23875,0.974923 0.59169,1.265945 0.3564,0.288111 0.8512,0.432167 1.48442,0.432167 0.36678,0 0.72145,-0.03783 1.064,-0.113499 0.34602,-0.07567 0.68858,-0.189164 1.02768,-0.340495 v 0.759566 c -0.34256,0.122229 -0.69377,0.215356 -1.05363,0.279381 -0.35985,0.06403 -0.7249,0.09604 -1.09515,0.09604 -0.92732,0 -1.66261,-0.226997 -2.20586,-0.68099 -0.53979,-0.453994 -0.80968,-1.06805 -0.80968,-1.842167 0,-0.80031 0.25605,-1.434737 0.76816,-1.903282 0.51557,-0.471455 1.20933,-0.707182 2.0813,-0.707182 0.782,0 1.39964,0.212446 1.85292,0.637337 0.45675,0.421981 0.68512,0.996749 0.68512,1.724303 z m -0.95501,-0.235727 c -0.007,-0.439443 -0.15398,-0.790124 -0.44117,-1.052043 -0.28374,-0.26192 -0.6609,-0.39288 -1.13148,-0.39288 -0.53287,0 -0.9602,0.126595 -1.282,0.379784 -0.31833,0.253189 -0.50172,0.60969 -0.55016,1.069504 z m 6.69544,0.440897 c 0,-0.590774 -0.14533,-1.053498 -0.43598,-1.388173 -0.2872,-0.337585 -0.68339,-0.506377 -1.18858,-0.506377 -0.50518,0 -0.9031,0.168792 -1.19375,0.506377 -0.2872,0.334675 -0.4308,0.797399 -0.4308,1.388173 0,0.590775 0.1436,1.054954 0.4308,1.392539 0.29065,0.334675 0.68857,0.502012 1.19375,0.502012 0.50519,0 0.90138,-0.167337 1.18858,-0.502012 0.29065,-0.337585 0.43598,-0.801764 0.43598,-1.392539 z m -3.24911,-1.706841 c 0.20069,-0.291022 0.45329,-0.506378 0.75778,-0.646068 0.30795,-0.142601 0.67474,-0.213901 1.10034,-0.213901 0.70587,0 1.27853,0.235727 1.71798,0.707182 0.4429,0.471455 0.66435,1.091331 0.66435,1.859628 0,0.768298 -0.22145,1.388174 -0.66435,1.859629 -0.43945,0.471455 -1.01211,0.707182 -1.71798,0.707182 -0.4256,0 -0.79239,-0.06985 -1.10034,-0.209535 -0.30449,-0.142601 -0.55709,-0.359412 -0.75778,-0.650433 v 0.733374 h -0.9602 v -6.792445 h 0.9602 z m 13.02756,0 v -2.645387 h 0.95501 v 6.792445 h -0.95501 v -0.733374 c -0.20069,0.291021 -0.45501,0.507832 -0.76297,0.650433 -0.30449,0.13969 -0.67127,0.209535 -1.10033,0.209535 -0.70242,0 -1.27508,-0.235727 -1.71798,-0.707182 -0.43944,-0.471455 -0.65916,-1.091331 -0.65916,-1.859629 0,-0.768297 0.21972,-1.388173 0.65916,-1.859628 0.4429,-0.471455 1.01556,-0.707182 1.71798,-0.707182 0.42906,0 0.79584,0.0713 1.10033,0.213901 0.30796,0.13969 0.56228,0.355046 0.76297,0.646068 z m -3.25429,1.706841 c 0,0.590775 0.1436,1.054954 0.43079,1.392539 0.29065,0.334675 0.68857,0.502012 1.19376,0.502012 0.50519,0 0.90311,-0.167337 1.19376,-0.502012 0.29065,-0.337585 0.43598,-0.801764 0.43598,-1.392539 0,-0.590774 -0.14533,-1.053498 -0.43598,-1.388173 -0.29065,-0.337585 -0.68857,-0.506377 -1.19376,-0.506377 -0.50519,0 -0.90311,0.168792 -1.19376,0.506377 -0.28719,0.334675 -0.43079,0.797399 -0.43079,1.388173 z m 11.14868,-0.20517 v 0.392879 h -4.39096 c 0.0415,0.552941 0.23875,0.974923 0.59169,1.265945 0.3564,0.288111 0.8512,0.432167 1.48442,0.432167 0.36678,0 0.72145,-0.03783 1.064,-0.113499 0.34602,-0.07567 0.68857,-0.189164 1.02767,-0.340495 v 0.759566 c -0.34255,0.122229 -0.69376,0.215356 -1.05362,0.279381 -0.35986,0.06403 -0.72491,0.09604 -1.09515,0.09604 -0.92733,0 -1.66261,-0.226997 -2.20586,-0.68099 -0.53979,-0.453994 -0.80968,-1.06805 -0.80968,-1.842167 0,-0.80031 0.25605,-1.434737 0.76816,-1.903282 0.51557,-0.471455 1.20933,-0.707182 2.0813,-0.707182 0.782,0 1.39964,0.212446 1.85292,0.637337 0.45674,0.421981 0.68511,0.996749 0.68511,1.724303 z m -0.955,-0.235727 c -0.007,-0.439443 -0.15398,-0.790124 -0.44118,-1.052043 -0.28373,-0.26192 -0.66089,-0.39288 -1.13147,-0.39288 -0.53287,0 -0.9602,0.126595 -1.282,0.379784 -0.31833,0.253189 -0.50172,0.60969 -0.55016,1.069504 z m 1.83735,-2.00805 h 1.0121 l 1.81659,4.103405 1.8166,-4.103405 h 1.0121 l -2.17991,4.889164 h -1.29757 z"
       id="text2"
       style="font-size:25.4px;font-family:Vemana2000;-inkscape-font-specification:Vemana2000;stroke-width:0.101546"
       aria-label="HD web dev"
       sodipodi:nodetypes="cccccccccccccccscscsccscsssccccccccccccccccscccscccsscscscsccscccscscscscsccscscsccccccccccccccscscsccscscscscsscccscccsscscscsccsccccccccccc" />
  </g>
</svg>
